<?xml version="1.0" standalone="no"?>
<!DOCTYPE svg PUBLIC "-//W3C//DTD SVG 20010904//EN"
 "http://www.w3.org/TR/2001/REC-SVG-20010904/DTD/svg10.dtd">
<svg version="1.0" xmlns="http://www.w3.org/2000/svg"
 width="300.000000pt" height="300.000000pt" viewBox="0 0 300.000000 300.000000"
 preserveAspectRatio="xMidYMid meet">
<metadata>
Created by potrace 1.10, written by Peter Selinger 2001-2011
</metadata>
<g transform="translate(0.000000,300.000000) scale(0.100000,-0.100000)"
fill="#000000" stroke="none">
<path d="M1445 2695 c-41 -15 -81 -55 -91 -90 -5 -19 -12 -20 -122 -17 -141 3
-202 -9 -240 -49 -23 -25 -35 -29 -78 -29 -68 0 -148 -41 -191 -97 -26 -35
-32 -54 -38 -115 -3 -40 -5 -476 -3 -968 3 -885 3 -895 24 -935 11 -22 40 -53
63 -70 l43 -30 684 -3 c668 -2 685 -2 723 18 47 24 83 70 99 126 17 58 17
1835 0 1902 -14 61 -39 95 -95 133 -36 25 -59 33 -112 37 -55 4 -70 10 -92 33
-37 40 -90 50 -231 45 l-123 -4 -20 41 c-23 48 -82 87 -130 86 -16 0 -48 -6
-70 -14z m112 -45 c44 -26 64 -68 61 -131 -4 -76 17 -89 138 -89 105 0 158
-16 167 -49 l5 -21 -425 0 -425 0 14 23 c25 37 57 47 163 47 55 0 105 4 111 8
21 14 32 48 31 98 -1 61 20 99 66 119 43 19 56 18 94 -5z m-207 -125 c0 -14
-15 -15 -113 -9 -135 8 -179 -2 -197 -46 -7 -18 -9 -45 -5 -71 6 -33 4 -40 -6
-37 -9 3 -15 25 -17 64 -3 54 0 63 24 87 27 27 28 27 170 27 123 0 144 -2 144
-15z m621 -4 c32 -26 48 -161 18 -161 -5 0 -9 24 -9 54 0 38 -6 61 -19 77 -19
23 -24 24 -157 24 -101 0 -138 3 -141 13 -4 9 29 12 140 12 126 0 148 -2 168
-19z m-631 -43 c0 -3 -51 -8 -114 -10 -97 -2 -117 -6 -136 -23 l-22 -20 3 25
c3 20 11 26 39 30 50 8 230 6 230 -2z m588 -2 c7 -4 12 -17 12 -28 0 -21 0
-21 -21 -2 -17 16 -40 20 -128 22 -58 2 -110 7 -115 12 -10 10 236 6 252 -4z
m-968 -68 c0 -39 5 -57 22 -75 l21 -23 502 0 c581 0 545 -6 545 91 l0 59 48 0
c51 0 103 -25 122 -59 7 -14 10 -302 8 -970 -3 -943 -3 -950 -24 -978 -11 -15
-36 -36 -55 -46 -32 -16 -78 -17 -656 -15 -611 3 -622 3 -650 24 -15 11 -36
36 -45 55 -17 32 -18 99 -18 980 l0 946 23 20 c37 33 60 42 110 43 l47 0 0
-52z m-210 -1011 l0 -942 32 -39 c56 -68 30 -66 723 -66 684 0 662 -2 720 59
l30 32 3 950 c1 615 6 949 12 949 7 0 10 -332 10 -948 l0 -949 -29 -40 c-56
-77 -19 -74 -759 -71 l-659 3 -35 27 c-69 53 -67 35 -68 629 -1 1199 0 1349
10 1349 7 0 10 -321 10 -943z"/>
<path d="M1474 2630 c-54 -22 -71 -99 -31 -145 51 -60 148 -21 150 60 1 30 -5
43 -31 66 -33 30 -52 34 -88 19z m57 -50 c25 -14 24 -45 -3 -64 -19 -13 -25
-14 -43 -2 -26 18 -30 40 -10 60 19 19 29 20 56 6z"/>
<path d="M1432 2383 c48 -2 129 -2 180 0 51 1 12 3 -87 3 -99 0 -141 -2 -93
-3z"/>
<path d="M1258 2283 c133 -2 351 -2 485 0 133 1 24 2 -243 2 -267 0 -376 -1
-242 -2z"/>
<path d="M1076 2181 c-16 -26 27 -31 230 -29 178 3 209 5 209 18 0 13 -32 15
-217 18 -122 1 -219 -2 -222 -7z"/>
<path d="M1562 2173 c3 -17 26 -18 286 -21 279 -3 324 1 306 29 -3 5 -138 9
-300 9 -276 0 -295 -1 -292 -17z"/>
<path d="M892 2168 c-18 -18 -16 -133 4 -152 19 -20 103 -22 128 -3 14 10 16
25 14 87 l-3 75 -65 3 c-42 2 -70 -2 -78 -10z m108 -73 l0 -45 -38 0 -38 0 2
43 c1 23 2 43 3 45 1 1 17 2 36 2 35 0 35 0 35 -45z"/>
<path d="M1110 2015 c0 -13 63 -15 505 -15 442 0 505 2 505 15 0 13 -63 15
-505 15 -442 0 -505 -2 -505 -15z"/>
<path d="M892 1918 c-7 -7 -12 -40 -12 -78 0 -38 5 -71 12 -78 14 -14 116 -16
137 -3 18 11 16 151 -2 163 -19 12 -122 9 -135 -4z m108 -73 l0 -45 -37 0 -38
0 2 42 c1 24 2 44 2 46 1 1 17 2 36 2 35 0 35 0 35 -45z"/>
<path d="M1110 1905 c0 -13 61 -15 501 -15 396 0 500 3 497 13 -4 9 -115 13
-501 15 -438 2 -497 0 -497 -13z"/>
<path d="M1382 1825 c-139 -31 -254 -111 -332 -231 -58 -88 -90 -169 -90 -225
0 -39 29 -111 50 -124 6 -4 10 -88 10 -225 l0 -218 26 -31 c34 -41 92 -44 129
-6 14 13 25 29 25 35 0 5 14 10 30 10 21 0 30 -5 30 -16 0 -8 14 -29 30 -46
27 -27 36 -30 70 -25 l40 5 0 -59 c0 -71 18 -103 66 -119 27 -9 42 -9 65 0 48
20 59 45 59 137 0 80 1 83 23 83 12 0 32 7 43 15 24 16 94 10 94 -10 0 -18 41
-53 71 -60 28 -7 86 16 95 38 3 9 33 11 104 9 87 -3 100 -1 100 13 0 14 -12
16 -95 13 -71 -2 -95 0 -95 10 0 6 6 12 14 12 7 0 25 9 40 21 l26 20 0 187 0
186 28 40 c38 55 38 146 0 229 -68 145 -196 267 -329 314 -91 31 -234 40 -327
18z m230 -56 c91 -19 190 -74 256 -143 74 -77 134 -190 135 -254 0 -40 -4 -49
-36 -79 -45 -41 -84 -43 -165 -9 -31 13 -66 26 -77 29 -15 3 -13 5 8 6 32 1
28 21 -4 21 -36 0 -79 -30 -105 -73 -35 -57 -62 -77 -104 -77 -41 0 -71 22
-94 66 -23 48 -72 84 -111 84 -19 0 -37 -4 -40 -10 -4 -6 7 -10 27 -10 28 0
23 -4 -37 -27 -42 -16 -91 -27 -122 -27 -44 -1 -56 3 -82 28 -38 37 -41 89
-10 168 24 62 95 165 140 202 113 96 273 136 421 105z m-235 -558 c22 -32 23
-43 23 -217 l0 -184 -25 -16 c-24 -16 -27 -16 -45 1 -19 17 -20 32 -20 230 0
116 3 215 7 219 14 13 38 0 60 -33z m371 27 c8 -8 12 -65 12 -189 0 -144 -3
-179 -15 -189 -8 -7 -22 -10 -30 -6 -13 4 -15 35 -15 194 0 104 3 192 7 195
10 11 28 8 41 -5z m-497 -194 c-1 -87 -6 -163 -12 -169 -6 -6 -16 -6 -27 1
-15 10 -17 32 -20 152 -2 132 -1 143 18 162 39 39 43 23 41 -146z m-129 139
c13 -15 16 -46 16 -159 0 -78 4 -157 7 -177 6 -29 4 -36 -13 -41 -10 -4 -27
-4 -36 0 -14 5 -16 30 -16 200 0 203 4 220 42 177z m737 -2 c11 -20 17 -374 6
-391 -9 -15 -41 -12 -55 5 -10 12 -10 21 -1 41 7 16 11 88 11 194 0 143 2 170
15 170 8 0 19 -8 24 -19z m81 -305 c-7 -7 -10 -5 -10 4 -3 117 1 303 7 313 4
7 9 -60 11 -147 1 -100 -1 -163 -8 -170z m-300 125 c0 -161 -3 -176 -37 -163
-10 3 -13 41 -13 145 0 117 3 144 17 159 9 10 20 18 25 18 4 0 8 -72 8 -159z
m-119 113 c10 -12 14 -72 17 -235 3 -120 2 -229 -2 -243 -7 -30 -43 -44 -62
-24 -12 11 -15 62 -16 255 0 132 2 245 6 252 10 16 41 14 57 -5z"/>
<path d="M1282 1684 c-57 -28 -105 -78 -100 -103 6 -29 38 -23 78 13 21 19 52
42 68 50 37 19 47 43 23 56 -14 7 -31 3 -69 -16z"/>
<path d="M1411 1696 c-14 -17 -7 -36 14 -36 22 0 29 20 13 36 -13 13 -16 13
-27 0z"/>
<path d="M1100 1499 c-22 -43 -21 -69 4 -69 16 0 59 87 50 101 -12 20 -35 7
-54 -32z"/>
<path d="M1286 1527 c-38 -27 2 -95 42 -71 24 16 28 55 6 71 -10 7 -21 13 -24
13 -3 0 -14 -6 -24 -13z"/>
<path d="M1422 1528 c-30 -30 2 -93 36 -72 31 20 37 41 18 63 -22 24 -37 26
-54 9z"/>
<path d="M1556 1524 c-19 -18 -20 -28 -6 -55 12 -21 40 -25 58 -7 18 18 14 56
-7 68 -25 13 -27 13 -45 -6z"/>
<path d="M1698 1529 c-31 -18 -17 -79 18 -79 17 0 44 28 44 45 0 14 -27 45
-38 45 -4 0 -15 -5 -24 -11z"/>
<path d="M1938 1430 c9 -89 -29 -122 -112 -101 -66 16 -67 13 -7 -15 67 -30
91 -30 125 1 29 27 33 56 14 116 -15 50 -25 50 -20 -1z"/>
<path d="M1090 1339 c0 -5 -4 -7 -10 -4 -22 14 -8 -14 15 -29 32 -21 64 -20
121 4 58 25 54 32 -9 17 -39 -9 -53 -8 -82 6 -20 10 -35 12 -35 6z"/>
<path d="M1576 1274 c-28 -16 -79 -15 -121 0 -14 5 -10 -2 13 -23 42 -40 64
-39 110 4 41 38 41 42 -2 19z"/>
<path d="M1364 985 c0 -77 2 -107 3 -67 2 40 2 103 0 140 -2 37 -3 4 -3 -73z"/>
<path d="M1110 1764 c0 -11 9 -14 37 -12 52 4 56 28 4 28 -30 0 -41 -4 -41
-16z"/>
<path d="M1852 1768 c3 -9 41 -14 131 -16 109 -2 127 0 127 13 0 13 -20 15
-131 15 -100 0 -130 -3 -127 -12z"/>
<path d="M892 1658 c-12 -12 -17 -104 -6 -132 12 -30 104 -16 104 16 0 4 -13
8 -30 8 -28 0 -30 2 -30 40 0 39 1 40 35 40 28 0 35 -4 35 -20 0 -28 24 -25
40 5 21 39 0 55 -74 55 -35 0 -67 -5 -74 -12z"/>
<path d="M1960 1646 c0 -18 48 -29 110 -24 32 2 45 7 45 18 0 12 -17 16 -77
18 -64 2 -78 0 -78 -12z"/>
<path d="M2042 1548 c3 -7 21 -14 41 -16 28 -2 37 1 37 12 0 12 -11 16 -41 16
-28 0 -39 -4 -37 -12z"/>
<path d="M887 1393 c-9 -8 -9 -96 -1 -117 9 -22 74 -22 74 0 0 9 -9 18 -20 21
-17 4 -20 14 -20 54 0 46 -13 63 -33 42z"/>
<path d="M2057 1244 c-4 -4 -7 -14 -7 -21 0 -10 11 -13 43 -11 29 2 42 8 42
18 0 16 -64 27 -78 14z"/>
<path d="M892 1168 c-14 -14 -16 -125 -3 -146 12 -19 116 -12 116 8 0 10 -12
16 -41 18 l-40 3 1 42 c1 41 2 42 40 47 27 3 40 10 40 20 0 20 -94 27 -113 8z"/>
<path d="M2060 1130 c0 -16 5 -21 23 -18 12 2 22 10 22 18 0 8 -10 16 -22 18
-18 3 -23 -2 -23 -18z"/>
<path d="M2047 1054 c-19 -19 -6 -35 26 -32 39 4 45 32 7 36 -14 2 -29 0 -33
-4z"/>
<path d="M2025 930 c-9 -15 17 -21 75 -18 32 2 55 8 58 16 5 15 -123 17 -133
2z"/>
<path d="M892 918 c-18 -18 -15 -133 4 -152 17 -17 99 -22 108 -7 14 22 -7 41
-43 41 l-37 0 1 43 c1 41 2 42 38 47 21 3 38 8 37 13 0 4 0 12 0 17 0 14 -94
12 -108 -2z"/>
<path d="M1217 784 c-14 -14 -6 -24 19 -24 16 0 24 5 22 13 -5 14 -31 21 -41
11z"/>
<path d="M1669 774 c-9 -11 -6 -14 20 -14 34 0 42 15 11 23 -10 3 -24 -1 -31
-9z"/>
<path d="M892 658 c-7 -7 -12 -39 -12 -73 0 -34 5 -66 12 -73 13 -13 116 -16
136 -4 13 9 19 132 7 151 -9 15 -128 14 -143 -1z m108 -68 c0 -38 -2 -40 -30
-40 -16 0 -33 0 -37 0 -8 0 -12 59 -6 73 2 4 20 7 39 7 33 0 34 -1 34 -40z"/>
<path d="M1115 659 c-15 -23 15 -30 126 -27 93 2 114 6 114 18 0 12 -21 16
-117 18 -78 2 -119 -1 -123 -9z"/>
<path d="M1604 659 c-14 -24 29 -29 257 -29 189 0 239 3 248 14 9 11 8 15 -5
20 -30 11 -492 7 -500 -5z"/>
<path d="M1117 544 c-4 -4 -7 -13 -7 -21 0 -11 90 -13 499 -13 356 0 502 3
507 11 9 16 -17 30 -43 24 -33 -8 -893 -8 -923 0 -14 3 -29 3 -33 -1z"/>
</g>
</svg>
